<?xml version="1.0" encoding="utf-8"?>
<!-- Generator: Adobe Illustrator 16.0.0, SVG Export Plug-In . SVG Version: 6.00 Build 0)  -->
<!DOCTYPE svg PUBLIC "-//W3C//DTD SVG 1.1//EN" "http://www.w3.org/Graphics/SVG/1.1/DTD/svg11.dtd">
<svg version="1.1" id="Layer_1" xmlns="http://www.w3.org/2000/svg" xmlns:xlink="http://www.w3.org/1999/xlink" x="0px" y="0px"
	 width="2500px" height="2500px" viewBox="0 0 2500 2500" enable-background="new 0 0 2500 2500" xml:space="preserve">
<circle fill="#CF4037" cx="1249.926" cy="1250" r="1250"/>
<path fill="#65493C" d="M1514.298,1883.628c0-68.801,31.301-217.684,40.265-333.846c-3.906,0.82-7.886,1.245-11.877,1.27
	c-26.818,0-48.558-22.336-48.184-61.405c0.598-55.504,35.26-129.685,79.707-186.309c-1.994-50.504-5.332-100.946-10.01-151.273
	c-7.875,3.654-16.421,5.638-25.1,5.827c-27.342,0-42.059-16.808-41.834-44.672c0.448-37.276,16.658-74.554,41.685-108.095
	c-5.644-16.486-11.571-32.873-17.779-49.154c-139.396,105.778-265.046,400.257-265.867,475.407
	c-0.448,41.908,31.524,78.214,66.336,78.214c52.143,0,172.638-103.313,173.908-226.125c0.149-16.733-7.172-30.703-24.577-30.703
	c-34.812,0-60.211,50.201-68.204,106.078c-39.966,19.498-49.976,27.864-90.166,64.17c13.596-106.078,71.789-206.628,153.813-206.628
	c34.812,0,49.528,19.572,49.154,53.039c-1.568,150.75-144.699,284.767-231.728,284.767c-64.543,0-121.168-53.039-120.271-134.017
	c2.167-210.812,192.359-430.735,340.495-508.875c-20.469-52.74-42.581-108.543-56.177-149.33
	c-23.83-71.491-40.265-130.88-57.67-255.633c-7.545-53.936-3.735-91.511-3.735-91.511s23.756-17.406,23.756-73.956
	c0-28.835-9.188-49.229-11.28-56.998c-13.745,2.465-92.781,11.878-135.361,10.683c-42.58-1.345-152.394-10.01-157.847-13.82
	c-0.299,8.441-2.092,14.193-3.81,26.295c-3.287,23.755-10.011,68.951,20.095,109.066c0,0,3.735,110.336-23.83,220.598
	c-27.491,110.261-107.871,274.98-124.007,339.598c-2.54,10.085-6.274,15.016,8.74,20.096c15.016,5.079,31.301,2.465,31.301,28.835
	h-30.03c0,0-1.793,2.391-4.408,7.396c-15.154,26.371-27.737,54.14-37.575,82.92c31.375-37.202,63.423-64.021,95.545-64.021
	c19.572,0,29.283,5.528,48.631,16.733l9.936-13.969h58.492l-79.782,164.645c-2.54,8.366-32.495,72.611-32.57,80.978
	c-0.074,8.366,2.315,11.131,9.637,11.131c12.251,0,24.577-13.97,76.57-92.108l12.177,2.839
	c-49.901,108.842-104.136,159.116-147.986,159.116c-34.214,0-38.92-14.044-38.621-47.511c-8.591,8.965-16.51,16.584-23.83,22.859
	c2.913,10.906,6.424,21.888,10.533,32.943c-0.225,35.857-6.126,35.335-6.873,51.396c67.382,12.326,118.702,43.104,183.844,102.193
	c-72.91-27.938-94.798-36.306-116.686-36.306c-19.516,0.151-38.864,3.612-57.223,10.234c6.126,38.099,13.671,82.696,17.555,115.117
	c7.545,61.405,25.025,165.466,25.025,215.592c0,50.125-35.11,201.771-52.665,254.362c-17.555,52.666-16.285,76.421-16.285,100.251
	s22.561,134.166,348.413,134.166c310.838,0,302.023-110.336,302.023-155.456C1568.158,2059.104,1514.298,1963.859,1514.298,1883.628
	L1514.298,1883.628z"/>
<path fill="#FFFFFF" d="M1222.285,292.461c9.637,0.149,19.348,1.195,30.703,1.569c31.3,2.615,53.637-0.971,72.237-1.868
	c33.392-2.689,65.439-6.723,73.731-8.143c0.224,0.822,2.391-0.672,2.839-3.138c5.603-34.512,1.27-76.42-18.825-90.241
	c-20.021-13.82-85.386-21.29-129.161-21.29s-109.216,7.545-129.235,21.29c-20.021,13.746-24.428,55.729-18.751,90.241
	C1109.783,283.571,1173.056,289.249,1222.285,292.461L1222.285,292.461z"/>
<path fill="#CF4037" d="M1449.083,2197.006c-65.141,14.119-96.517,12.476-96.517,12.476l-1.27-8.815c0,0,26.295,5.006,83.966-18.75
	c10.31-4.333,18.451-12.027,14.94-55.803c-3.138-39.368-18.302-195.646-31.226-251.226c-2.54-9.263,0.896-21.29,0.896-21.29
	c1.345,3.361,2.764,8.367,4.258,14.567c9.338,33.541,24.129,122.512,29.657,181.004c7.172,74.554,10.384,125.202,10.384,125.202
	s64.767-18.9,68.95-26.295c0,0-18.975-175.701-59.239-273.412c-8.217-20.17,3.586-27.191,16.659,17.704
	c12.998,45.046,52.067,179.212,59.239,264.522C1549.707,2156.965,1515.194,2182.514,1449.083,2197.006L1449.083,2197.006z
	 M1079.977,1793.761c0,0-33.168-5.379-31.973-213.127c0,0,9.412-22.485,12.998,27.267S1085.654,1780.837,1079.977,1793.761
	L1079.977,1793.761z M1264.866,996.31c34.513,0,56.026,4.258,67.681,10.011c-1.42-47.586-13.896-228.591-13.896-228.591
	c14.418,71.191,22.635,207.15,24.428,240.916c0.747,9.637-14.343,10.31-14.343,10.31c-16.584,0-110.261,0.598-152.842,0.598
	c0,0-7.769,0.522-8.292-1.345c-5.752-6.2,29.583-290.07,29.583-290.07c-8.292,59.911-16.659,229.262-18.825,275.728
	C1205.706,1002.207,1235.139,996.234,1264.866,996.31L1264.866,996.31z M1292.432,1598.787c0.896,0,9.039-0.149,12.251-0.448
	c-0.075,14.417-2.241,32.495-3.437,43.626c-2.315,23.681,0.149,158.444,0,171.442c-0.373,29.583-8.292,48.482-8.292,8.218
	C1292.954,1789.503,1290.862,1650.705,1292.432,1598.787z M1445.348,1550.23c0,0,12.625-18.9,13.82,0
	c1.194,18.975-11.804,146.641-21.291,210.512c-9.487,63.945-19.871,44.299-19.871,44.299
	C1432.125,1775.459,1445.348,1550.23,1445.348,1550.23L1445.348,1550.23z M1496.668,1785.544
	c8.218-34.363,24.802-165.766,24.802-165.766C1522.739,1729.891,1496.668,1785.544,1496.668,1785.544z M1455.806,906.891
	c-8.516-32.197-20.617-69.772-35.035-115.416c-6.425-20.318-10.683-70.967-10.683-70.967s8.292,41.46,14.193,56.849
	c2.988,7.844,21.589,59.837,37.875,116.088L1455.806,906.891L1455.806,906.891z M1103.284,718.64c0,0-4.259,50.648-10.683,70.968
	c-37.127,117.955-48.781,191.389-52.067,220.522c11.803-5.901,32.943-6.873,55.13-6.873c68.428,0,54.459,25.698,47.81,25.698
	h-104.21c0,0-16.584,0.074-16.957-10.085c-0.598-19.423,60.732-228.067,66.709-243.456S1103.284,718.64,1103.284,718.64
	L1103.284,718.64z M1010.055,1669.455c5.977,49.752,2.391,82.846,2.391,82.846s-21.29-176.373-22.485-188.251
	C990.035,1564.125,1004.153,1619.778,1010.055,1669.455L1010.055,1669.455z M1164.689,2216.354
	c54.309,5.08,120.346,2.839,136.706-3.884c20.17-8.218,8.292-106.526,8.292-171.667c0-65.066-9.487-131.402-10.683-143.205
	s-14.866-34.662-6.648-1.494c8.292,33.094,6.648,201.473,8.964,235.836c2.391,34.289,1.195,66.262-18.899,69.848
	c-15.986,2.838-69.548,2.017-114.221,1.568C1153.26,2203.281,1144.669,2214.486,1164.689,2216.354L1164.689,2216.354z
	 M1112.248,2205.971c-52.964-10.907-114.295-21.515-158.146-60.435c-11.28-10.011-6.648-30.031-1.867-47.885
	c4.706-17.704,52.89-214.621,55.354-238.451c2.54-23.755,22.112-12.55,17.929,1.868c-4.184,14.417-55.504,212.977-59.09,236.583
	c-3.586,23.681-2.316,40.265,18.975,49.752c21.29,9.412,36.679,23.606,40.189,3.511c3.586-20.095,37.949-253.316,54.459-310.091
	c0,0,14.343-23.605-4.707,67.457c-5.453,25.922-31.449,189.371-34.363,239.123c-1.644,29.508,36.306,33.243,73.731,47.511
	C1123.229,2198.201,1137.498,2211.199,1112.248,2205.971L1112.248,2205.971z"/>
<path fill="#FFFFFF" d="M740.378,1484.118c70.744,0,104.733,16.809,145.671,64.17c17.256-13.97,61.48-41.908,115.116-41.908
	c21.963,0,43.851,8.366,116.686,36.306c-89.344-80.903-152.542-108.917-267.211-108.917c-158.594,0-303.442,83.741-408.325,83.741
	c-80.529,0-138.648-41.908-137.677-133.941c1.419-133.941,187.877-471.747,312.332-471.747c14.642,0,17.032,8.366,16.883,25.1
	c-12.251,5.603-46.689,30.703-46.913,53.039c-0.149,11.131,11.952,22.336,21.663,22.336c24.428,0,49.229-39.069,49.678-78.214
	c0.299-27.864-19.05-50.2-53.188-50.2c-165.915,0-395.924,298.736-397.941,491.32c-1.419,131.178,73.807,173.011,176.299,173.011
	C515.225,1548.288,606.138,1484.118,740.378,1484.118z M1601.626,881.491c24.876,0,39.667,8.367,66.858,25.101
	c44.971-16.733,67.382-25.101,97.263-25.101c54.608,0,116.462,33.467,182.947,89.271l-55.354,64.169
	c-115.864-92.108-157.922-106.077-220.074-106.077c-0.149,13.969,2.166,25.175,2.092,33.467
	c-0.896,86.506-76.57,195.422-136.258,195.422c-27.341,0-42.058-16.809-41.834-44.672c0.822-75.375,66.262-150.75,138.798-195.423
	h-19.945c-171.518,0-359.843,421.548-360.889,513.581c-0.448,41.908,31.524,78.214,66.336,78.214
	c52.143,0,172.638-103.313,173.908-226.125c0.149-16.733-7.172-30.703-24.577-30.703c-34.812,0-60.211,50.2-68.204,106.078
	c-39.966,19.497-49.976,27.864-90.166,64.17c13.596-106.078,71.789-206.628,153.813-206.628c34.812,0,49.528,19.572,49.154,53.039
	c-1.568,150.75-144.698,284.767-231.728,284.767c-64.543,0-121.168-53.039-120.271-134.017
	C1166.259,1157.892,1459.989,881.491,1601.626,881.491L1601.626,881.491z M1232.37,1131.896l34.736-66.561h-64.991l-32.271,66.561
	H1232.37z M2277.013,888.141c-88.747,86.505-152.394,108.842-237.854,108.842l-49.528,69.847
	c19.498,2.764,26.818,2.764,38.995,2.764C2133.658,1069.593,2244.293,985.852,2277.013,888.141z"/>
<path fill="#FFFFFF" d="M849.893,1048.602c21.888,0,41.235,19.572,40.937,47.511c-0.299,30.703-25.175,72.611-44.672,72.611
	c-9.786,0-19.423-11.131-19.348-19.572c0.299-30.703,27.267-39.069,44.373-41.908c0.075-8.367,0.225-22.336-14.343-22.336
	c-31.749,0-135.585,133.941-136.557,220.522c-0.224,22.336,9.413,30.628,26.52,30.628c82.92,0,185.935-284.692,290.893-284.692
	c19.571,0,29.283,5.528,48.631,16.733l9.936-13.969h58.492l-79.782,164.645c-2.54,8.366-32.496,72.611-32.57,80.978
	c-0.075,8.367,2.315,11.131,9.637,11.131c12.251,0,24.577-13.97,76.57-92.108l12.177,2.839
	c-49.902,108.842-104.136,159.116-147.986,159.116c-34.214,0-38.92-14.044-38.621-47.511c-32.048,33.467-54.16,47.511-78.588,47.511
	c-38.994,0-38.695-36.306-38.098-86.506c-51.919,64.17-86.356,92.034-130.282,92.034c-38.994,0-65.589-27.938-65.141-72.611
	c0.374-36.23,7.844-53.039,37.874-122.811l-43.999,11.13c-62.228,114.444-116.611,178.689-172.713,178.689
	c-26.818,0-48.557-19.572-48.184-61.406c1.271-117.208,124.828-267.958,202.893-267.958c31.749,0,46.092,25.1,45.793,53.039
	c-0.225,16.733-7.844,47.436-17.854,75.375C743.89,1154.68,771.828,1048.602,849.893,1048.602L849.893,1048.602z"/>
<path fill="#CF4037" d="M558.478,1154.604c-37.128,50.275-64.543,106.078-64.842,136.781c-0.149,16.808,9.486,27.938,24.054,27.938
	c29.358,0,51.694-41.908,96.441-120.047C587.387,1188.071,580.141,1182.544,558.478,1154.604L558.478,1154.604z M627.652,1085.057
	c-19.498,0-44.149,19.572-44.374,41.908c-0.299,27.864,23.979,41.908,48.258,50.2c12.476-30.628,15.016-38.995,15.165-55.803
	C647.074,1098.951,639.828,1085.057,627.652,1085.057z"/>
<path fill="#FFFFFF" d="M2070.459,1478.516c17.107,0,46.689-36.23,81.427-92.034l14.716-2.839
	c-44.971,97.786-101.819,167.484-152.99,167.484c-26.818,0-31.45-25.101-31.077-58.567c-29.656,36.23-51.844,55.803-81.127,55.803
	s-38.771-30.702-38.248-75.375c-39.592,53.039-71.64,78.139-103.313,78.139c-24.428,0-46.166-19.571-45.793-58.566
	c0.374-36.306,7.919-58.642,25.698-122.886h-29.358c-57.297,111.68-116.611,181.452-167.782,181.452
	c-26.818,0-48.557-22.336-48.184-61.405c1.121-103.239,119.898-270.723,200.502-270.723c26.818,0,43.627,25.1,43.328,55.803
	c-0.225,22.336-5.304,39.069-17.854,72.611h29.358c92.706-240.095,258.546-463.381,356.183-463.381
	c19.572,0,33.989,16.808,33.766,39.069c-0.149,13.97-2.689,19.572-12.625,39.069l-27.789,8.89
	c10.085-30.702,18.377-42.356,18.451-50.798c0.074-5.603-4.706-11.131-9.637-11.131c-38.994,0-162.628,153.515-265.194,390.77
	c68.876-53.038,140.441-128.488,190.118-212.155l24.428-2.839c-64.692,117.209-118.927,173.086-234.491,256.828
	c-12.625,41.908-25.474,97.786-25.698,117.283c-0.074,11.205,4.632,25.1,16.883,25.1c46.316,0,139.396-267.958,256.604-267.958
	c14.567,0,24.279,5.528,41.311,16.733l17.182-16.733h53.712l-94.798,195.348c-2.466,5.603-24.951,55.803-25.025,58.642
	C2063.139,1475.676,2065.529,1478.515,2070.459,1478.516L2070.459,1478.516z"/>
<path fill="#CF4037" d="M2080.171,1249.926c-31.749,0-138.051,131.178-138.798,212.155c-0.149,13.97,4.632,19.497,14.418,19.497
	c12.177,0,26.893-8.292,56.774-61.331l67.157-125.649c7.471-14.044,12.476-27.938,12.55-36.306
	C2092.348,1252.689,2089.957,1249.926,2080.171,1249.926L2080.171,1249.926z M1689.7,1249.701
	c-19.498,0-39.219,19.572-39.443,44.747c-0.373,33.467,21.439,44.672,45.793,53.039c12.476-30.703,17.48-41.909,17.704-61.406
	C1713.979,1260.832,1709.272,1249.701,1689.7,1249.701L1689.7,1249.701z M1630.76,1322.462
	c-32.048,30.702-59.314,75.375-59.837,122.886c-0.225,22.336,11.803,39.069,26.444,39.069c17.107,0,59.09-44.672,93.901-117.283
	C1664.525,1358.768,1642.637,1347.637,1630.76,1322.462L1630.76,1322.462z"/>
<path fill="#FFFFFF" d="M477.425,383.972c40.19-35.708,180.706-146.268,287.307-186.234c25.249-9.412,50.499,0,6.35,25.25
	c-44.224,25.25-243.082,154.635-293.656,201.996C426.926,472.345,420.576,434.471,477.425,383.972L477.425,383.972z
	 M2014.807,2074.194c-25.25,22.112-205.134,154.635-243.083,170.472c-37.874,15.763-20.319,37.277,15.837,25.25
	c56.849-18.975,190.118-109.365,252.495-183.097C2074.718,2045.733,2014.807,2074.194,2014.807,2074.194L2014.807,2074.194z"/>
<path fill="#62A24C" d="M1524.233,2197.006c0,0,25.101-15.016,30.105-20.095c0,0,14.791,26.743-8.815,73.881
	c-16.285,32.646-38.845,27.565-38.845,27.565s5.005-27.565,0-30.031C1506.753,2248.326,1525.578,2223.301,1524.233,2197.006z
	 M1442.21,2226.962c-10.011-3.81-18.526-0.822-23.009-1.195c-46.24-4.108-57.819,16.285-181.9,16.285
	c-82.621,0-212.156-13.297-264.373-55.131c-12.55-10.01-41.385-22.56-41.385,2.54c0,15.016,6.274,56.4,45.12,75.15
	c38.92,18.826,117.806,53.936,284.542,53.936s199.232-23.755,199.232-42.58s-22.561-22.561-22.561-6.275s-6.274,18.825-15.015,11.28
	s-23.831-22.561-36.306-21.29c-12.55,1.27-45.121,1.27-45.121,1.27s38.921-7.545,47.661-10.085
	c8.74-2.465,37.501,1.345,53.038-9.039c11.28-7.545,45.942-14.716,58.492-18.526c12.551-3.81,15.016-16.285-1.27-13.819
	C1486.957,2211.349,1452.22,2218.222,1442.21,2226.962L1442.21,2226.962z"/>
<path fill="#CF4037" d="M1265.016,703.326c0,0,65.215-3.735,93.378-12.476c0,0,12.55,10.683-15.016,14.417
	C1315.738,709.003,1277.565,709.003,1265.016,703.326z"/>
<path fill="#62A24C" d="M1385.212,385.989c15.015,0,12.476,15.015,0,15.015C1365.863,401.079,1368.403,385.989,1385.212,385.989z
	 M1363.847,428.644c0-12.55,13.521-26.369,13.745-1.27c0.673,62.302,13.073,142.384,16.36,174.207
	c3.735,36.305,17.48,71.415,11.205,72.686c-6.2,1.27-17.48,0-23.755-32.646C1375.127,609.126,1363.847,555.19,1363.847,428.644
	L1363.847,428.644z"/>
<path d="M1118,219.103c-1.997-0.529-4.052,0.631-4.631,2.615c-4.781,17.182-4.856,41.385-4.856,42.356
	c-0.041,2.062,1.597,3.768,3.659,3.81c0.051,0.001,0.101,0.001,0.151,0c2.017,0,3.734-1.718,3.734-3.81
	c0-0.224,0.075-24.129,4.632-40.34C1121.096,221.732,1119.94,219.743,1118,219.103L1118,219.103z M1152.289,223.884
	c-1.983-0.567-4.051,0.582-4.618,2.565c-0.005,0.017-0.009,0.033-0.014,0.05c-3.66,12.998-3.66,42.282-3.66,43.552
	c0,2.017,1.644,3.735,3.735,3.735c2.063,0.042,3.768-1.597,3.809-3.66c0.001-0.025,0.001-0.05,0.001-0.075
	c0-0.299,0-29.508,3.361-41.609c0.558-1.943-0.565-3.971-2.509-4.528C1152.359,223.902,1152.324,223.893,1152.289,223.884z
	 M1186.652,228.516c-1.992-0.488-4.021,0.657-4.632,2.614c-2.465,8.666-2.54,41.087-2.54,44.747c0,2.092,1.719,3.81,3.81,3.81
	c2.063,0,3.736-1.672,3.736-3.734c0-0.025,0-0.05-0.001-0.076c0-9.637,0.374-36.156,2.241-42.655
	C1189.8,231.206,1188.646,229.128,1186.652,228.516L1186.652,228.516z M1220.94,229.487c-1.991-0.488-4.02,0.657-4.632,2.614
	c-1.27,4.408-1.344,36.231-1.344,45.868c0,2.083,1.688,3.772,3.771,3.772c2.084,0,3.773-1.689,3.773-3.772
	c0-19.498,0.373-41.236,1.046-43.925v0.075c0.566-1.983-0.582-4.051-2.565-4.618C1220.974,229.496,1220.957,229.491,1220.94,229.487
	z M1395.072,221.718c-0.611-1.958-2.64-3.103-4.631-2.615c-1.991,0.54-3.168,2.591-2.629,4.582c0.005,0.017,0.009,0.033,0.014,0.049
	c4.482,16.21,4.557,40.116,4.557,40.34c-0.041,2.062,1.597,3.768,3.659,3.81c0.051,0.001,0.101,0.001,0.151,0
	c2.017,0,3.734-1.718,3.734-3.81C1399.854,263.103,1399.854,238.974,1395.072,221.718z M1356.078,223.884
	c-1.983,0.58-3.144,2.634-2.615,4.632c3.362,12.102,3.437,41.311,3.437,41.609c0,2.017,1.644,3.735,3.735,3.735
	c2.063,0.042,3.768-1.597,3.809-3.66c0.001-0.025,0.001-0.05,0.001-0.075c0-1.27-0.074-30.554-3.66-43.552
	c-0.49-2.004-2.512-3.231-4.516-2.741C1356.205,223.848,1356.141,223.865,1356.078,223.884z M1321.789,228.516
	c-1.991,0.54-3.168,2.591-2.628,4.582c0.004,0.016,0.009,0.033,0.014,0.049c1.793,6.499,2.166,33.019,2.166,42.655
	c0,2.083,1.689,3.772,3.772,3.772c2.084,0,3.772-1.689,3.772-3.772c0-3.66-0.074-36.007-2.465-44.747
	C1325.778,229.128,1323.76,228.021,1321.789,228.516L1321.789,228.516z M1287.426,229.487c-1.957,0.611-3.103,2.64-2.614,4.631
	v-0.075c0.672,2.689,1.046,24.428,1.046,43.925c0,2.092,1.718,3.81,3.734,3.81c2.063,0.042,3.769-1.596,3.811-3.659
	c0.001-0.05,0.001-0.101,0-0.151c0-9.637-0.149-41.535-1.345-45.868c-0.539-1.991-2.591-3.167-4.582-2.628
	C1287.459,229.478,1287.442,229.482,1287.426,229.487z M1254.184,230.309c-2.063,0-3.735,1.671-3.736,3.734
	c0,0.025,0,0.05,0.001,0.075v46.017c-0.041,2.062,1.598,3.768,3.659,3.809c0.025,0,0.051,0,0.076,0c2.104,0,3.81-1.706,3.81-3.81
	l0,0v-46.092c0-2.063-1.672-3.735-3.734-3.736C1254.233,230.308,1254.209,230.308,1254.184,230.309L1254.184,230.309z"/>
<path fill="#FFFFFF" d="M2196.035,1430.407c-31.601-0.413-57.553,24.869-57.965,56.47c-0.004,0.301-0.006,0.602-0.005,0.901
	c0,33.317,26.52,57.671,57.97,57.671c31.56,0.29,57.38-25.06,57.67-56.62c0.003-0.35,0.003-0.7,0-1.051
	c0.125-31.562-25.359-57.248-56.921-57.373C2196.534,1430.404,2196.285,1430.404,2196.035,1430.407z"/>
<path fill="#CF4037" d="M2196.035,1535.887c-26.146,0-46.54-20.394-46.54-48.108c0-25.62,20.77-46.39,46.391-46.39
	c25.62,0,46.39,20.77,46.39,46.39C2242.275,1515.493,2221.808,1535.887,2196.035,1535.887L2196.035,1535.887z M984.133,1025.145
	h30.031c0-26.37-16.285-23.755-31.301-28.835c-7.396-2.465-10.234-4.931-10.906-7.918c-4.632,18.675,5.603,33.093,10.757,38.92
	C983.535,1025.892,984.133,1025.145,984.133,1025.145L984.133,1025.145z"/>
<path fill="#62A24C" d="M1334.414,401.602c-13.223,0-61.405-3.735-72.088-3.735s-5.603-26.37,0-26.37h23.755
	c16.36,0,21.963-15.016,21.963-23.233l0.075-45.867c-15.763,0.896-31.002,1.27-43.253,0.896
	c-38.984-1.671-77.917-4.361-116.761-8.068c-1.718,3.436-4.706,11.205-9.86,28.76c-10.011,34.513,11.28,63.946-4.407,51.993
	c-15.688-11.877-8.74-54.458-6.873-62.003c1.793-7.545,3.138-20.095-5.005-20.095s-16.958,16.285-16.958,55.13
	c0,38.846,22.561,58.269,22.561,58.269s2.54,1.867,3.138,27.565c0.672,25.697-7.545,139.096-14.343,171.068
	c-6.948,31.974-18.229,71.416-16.36,77.691l0.299-0.075c-1.569-2.315,1.718-4.407,13.372-5.752
	c-1.411-4.906-1.121-10.145,0.821-14.866c3.735-10.01,10.683-45.718,15.688-68.875c4.931-23.158,6.873-51.993,8.74-74.628
	c1.867-22.561,5.005-69.549,5.005-85.834s14.418-12.476,14.418-0.598s-0.598,42.581-1.27,75.226
	c-0.673,32.57-11.878,119.674-13.148,130.281c-1.27,10.608-1.867,24.802,1.271,24.802h17.182c5.603,0,9.113,2.839,9.113,9.039
	v75.823l18.825,0.896l2.54-19.124c4.407,0,5.005-20.021,5.005-20.021h32.646v-36.38c0-7.471,5.005-11.205,9.412-11.205
	s46.315-1.271,46.315-1.271V504.99c0-35.782-12.849-47.361-19.721-49.827c-6.948-2.539-7.247-2.838-7.247-7.246V433.5
	c0-3.138-4.407-8.815,5.006-8.815c9.412,0,45.718-4.407,67.605-4.407C1353.837,420.427,1347.562,401.602,1334.414,401.602
	L1334.414,401.602z"/>
<path fill="#CF4037" d="M1145.192,698.021c0,0-87.701-17.405-18.825-21.29c11.28-0.598,16.285,0.673,16.285,0.673
	s-39.443,5.005-22.561,5.603c16.958,0.672,23.232,1.867,23.232,1.867s-28.76,2.54-17.555,5.005
	C1131.447,691.149,1145.192,698.021,1145.192,698.021L1145.192,698.021z"/>
<path fill="#AFD4B9" d="M1199.725,325.853c0-18.825,32.646-25.025,32.646,0v22.56c0,15.389-31.973,19.124-31.973-0.597
	C1200.322,332.8,1199.725,325.853,1199.725,325.853z M1206,417.962c-10.683,0-21.29,5.603-21.29,15.612
	c0,10.011,12.55,6.873,12.55,30.703s-4.407,184.889-4.407,204.312s20.692,22.561,20.692,0c0-22.635,7.545-200.576,7.545-209.989
	c0-9.412,11.878-13.147,19.423-13.147s14.418-27.565-1.27-27.565L1206,417.962z M1176.044,367.761
	c-23.83-6.275-26.37,21.291-5.005,26.295c21.29,5.005,42.581,2.54,53.936,2.54c11.205,0,21.589-26.37-2.54-26.37
	C1193.6,370.301,1176.044,367.761,1176.044,367.761L1176.044,367.761z"/>
<path fill="#62A24C" d="M1335.012,300.753l18.152-1.27v31.375c0,12.55-16.883,15.015-16.883,0
	C1336.281,315.843,1335.012,300.753,1335.012,300.753z"/>
<path fill="#CF4037" d="M1546.495,1030.3c5.976,24.651,11.28,61.181,15.239,98.309c50.499-22.561,85.759-136.184,86.356-191.389
	C1608.313,961.102,1573.76,992.76,1546.495,1030.3z"/>
<path fill="#65493C" d="M934.829,1316.561c12.177,0,29.508-19.572,49.379-55.878l62.228-119.973
	c17.405-33.467,17.405-33.467,17.48-41.908c0.074-8.441-2.241-13.97-12.027-13.97c-31.749,0-135.735,147.912-136.407,209.392
	C915.406,1305.354,922.578,1316.561,934.829,1316.561z"/>
<path fill="#FFFFFF" d="M2222.33,1473.66c0-13.073-7.77-18.825-23.308-18.825h-25.1v66.336h10.01v-28.761h11.43l17.331,28.761
	h11.131l-18.676-29.209C2214.859,1490.691,2222.33,1485.463,2222.33,1473.66L2222.33,1473.66z"/>
<path fill="#CF4037" d="M2183.933,1483.819v-20.469h13.597c6.947,0,14.343,1.494,14.343,9.712c0,10.234-7.62,10.832-16.062,10.832
	h-11.878V1483.819z"/>
<path fill="#65493C" d="M1544.179,1132.717c6.052,0,11.878-1.494,17.556-4.034c-3.022-33.056-8.111-65.89-15.239-98.309
	c-17.182,24.577-29.209,51.246-29.433,77.168C1516.912,1124.275,1529.238,1132.717,1544.179,1132.717L1544.179,1132.717z"/>
<path fill="#AFD4B9" d="M1163.195,2275.145c9.712-28.61-62.302-37.874-71.042-16.285
	C1084.907,2276.564,1156.099,2296.36,1163.195,2275.145z"/>
</svg>
