<?xml version="1.0" encoding="utf-8"?>
<!-- Generator: Adobe Illustrator 16.0.0, SVG Export Plug-In . SVG Version: 6.00 Build 0)  -->
<!DOCTYPE svg PUBLIC "-//W3C//DTD SVG 1.1//EN" "http://www.w3.org/Graphics/SVG/1.1/DTD/svg11.dtd">
<svg version="1.1" id="Layer_1" xmlns="http://www.w3.org/2000/svg" xmlns:xlink="http://www.w3.org/1999/xlink" x="0px" y="0px"
	 width="20px" height="20px" viewBox="0 0 20 20" enable-background="new 0 0 20 20" xml:space="preserve">
<path fill="#FFFFFF" stroke="#010101" stroke-width="0.04" stroke-miterlimit="10" d="M13.17,7.521c1.238,0,2.211-0.973,2.211-2.21
	c0-1.193-0.973-2.21-2.211-2.21c-1.193,0-2.21,1.017-2.21,2.21C10.96,6.548,11.977,7.521,13.17,7.521z M13.348,8.14h-0.133
	c-0.89,0-1.687,0.434-2.188,1.099c-0.136-0.929-0.954-1.629-1.923-1.629H9.014c-0.671,0-1.254,0.337-1.591,0.854v-0.19
	c0-0.751-0.619-1.371-1.37-1.371H6.008c-0.751,0-1.37,0.619-1.37,1.371v2.741h2.475v2.298h3.36v3.007h5.614v-5.438
	C16.088,9.377,14.851,8.14,13.348,8.14z M9.014,7.167c0.841,0,1.547-0.707,1.547-1.547c0-0.84-0.707-1.547-1.547-1.547
	c-0.884,0-1.547,0.707-1.547,1.547C7.467,6.46,8.13,7.167,9.014,7.167z M6.008,6.592c0.575,0,1.105-0.486,1.105-1.105
	c0-0.575-0.53-1.105-1.105-1.105c-0.619,0-1.105,0.531-1.105,1.105C4.903,6.106,5.39,6.592,6.008,6.592z"/>
</svg>
