<?xml version="1.0" encoding="iso-8859-1"?>
<!-- Generator: Adobe Illustrator 17.1.0, SVG Export Plug-In . SVG Version: 6.00 Build 0)  -->
<!DOCTYPE svg PUBLIC "-//W3C//DTD SVG 1.1//EN" "http://www.w3.org/Graphics/SVG/1.1/DTD/svg11.dtd">
<svg version="1.1" id="Layer_1" xmlns="http://www.w3.org/2000/svg" xmlns:xlink="http://www.w3.org/1999/xlink" x="0px" y="0px"
	 viewBox="0 0 100 38" style="enable-background:new 0 0 100 38;" xml:space="preserve">
<g>
	<g>
		<g>
			<ellipse style="fill:#FFFFFF;" cx="2.714" cy="15.813" rx="2.285" ry="2.276"/>
			<path style="fill:#FFFFFF;" d="M2.714,18.609c-1.449,0-2.511,1.271-2.511,2.585v0.884l0,0c0,0.125,0.102,0.228,0.228,0.228h0.081
				h4.403h0.081c0.126,0,0.229-0.103,0.229-0.228l0,0v-0.884C5.225,19.88,4.163,18.609,2.714,18.609z"/>
		</g>
		<g>
			<ellipse style="fill:#FFFFFF;" cx="8.654" cy="15.091" rx="2.539" ry="2.529"/>
			<path style="fill:#FFFFFF;" d="M8.654,18.197c-1.61,0-2.79,1.413-2.79,2.873v0.983l0,0c0,0.139,0.114,0.253,0.254,0.253h0.09
				H11.1h0.09c0.14,0,0.254-0.114,0.254-0.253l0,0V21.07C11.443,19.61,10.263,18.197,8.654,18.197z"/>
		</g>
		<g>
			<ellipse style="fill:#FFFFFF;" cx="15.188" cy="14.29" rx="2.82" ry="2.81"/>
			<path style="fill:#FFFFFF;" d="M15.188,17.741c-1.789,0-3.1,1.57-3.1,3.192v1.092l0,0c0,0.154,0.126,0.281,0.282,0.281h0.1h5.436
				h0.1c0.156,0,0.282-0.127,0.282-0.281l0,0v-1.092C18.288,19.311,16.976,17.741,15.188,17.741z"/>
		</g>
	</g>
	<path style="fill:#FFFFFF;" d="M20.182,11.824h2.409v1.592c0.677-0.936,1.593-1.812,3.205-1.812c1.513,0,2.568,0.736,3.125,1.852
		c0.856-1.115,1.971-1.852,3.563-1.852c2.289,0,3.683,1.453,3.683,4.021v6.708h-2.409v-5.972c0-1.673-0.777-2.569-2.13-2.569
		c-1.314,0-2.249,0.917-2.249,2.608v5.932H26.97v-5.992c0-1.632-0.796-2.549-2.13-2.549c-1.334,0-2.25,0.996-2.25,2.628v5.912
		h-2.409V11.824z"/>
	<path style="fill:#FFFFFF;" d="M55.93,11.824h2.409v1.751c0.776-1.095,1.871-1.971,3.563-1.971c2.489,0,4.897,1.971,4.897,5.455
		v0.04c0,3.483-2.389,5.454-4.897,5.454c-1.732,0-2.827-0.875-3.563-1.851v5.819H55.93V11.824z M64.351,17.099v-0.04
		c0-2.031-1.374-3.364-3.007-3.364c-1.632,0-3.065,1.354-3.065,3.364v0.04c0,2.031,1.433,3.364,3.065,3.364
		C62.996,20.463,64.351,19.169,64.351,17.099z"/>
	<path style="fill:#FFFFFF;" d="M78.793,22.33h-2.409v-1.627c-0.736,0.976-1.831,1.851-3.563,1.851
		c-2.509,0-4.898-1.971-4.898-5.454v-0.04c0-3.484,2.409-5.455,4.898-5.455c1.692,0,2.787,0.876,3.563,1.971v-1.751h2.409V22.33z
		 M73.379,20.463c1.633,0,3.065-1.334,3.065-3.364v-0.04c0-2.011-1.433-3.364-3.065-3.364c-1.633,0-3.006,1.334-3.006,3.364v0.04
		C70.373,19.169,71.726,20.463,73.379,20.463z"/>
	<path style="fill:#FFFFFF;" d="M80.006,17.139v-0.04c0-2.986,2.309-5.494,5.454-5.494c1.991,0,3.225,0.736,4.2,1.812l-1.493,1.612
		c-0.736-0.776-1.513-1.314-2.727-1.314c-1.752,0-3.026,1.513-3.026,3.345v0.04c0,1.871,1.294,3.384,3.145,3.384
		c1.135,0,1.971-0.537,2.727-1.314l1.453,1.433c-1.035,1.155-2.249,1.971-4.3,1.971C82.315,22.573,80.006,20.125,80.006,17.139z"/>
	<path style="fill:#FFFFFF;" d="M90.031,17.12v-0.04c0-3.006,2.13-5.474,5.136-5.474c3.345,0,5.036,2.628,5.036,5.654
		c0,0.219-0.02,0.438-0.04,0.676H92.44c0.259,1.712,1.473,2.668,3.026,2.668c1.174,0,2.01-0.438,2.847-1.254l1.414,1.254
		c-0.995,1.194-2.369,1.971-4.3,1.971C92.38,22.573,90.031,20.364,90.031,17.12z M97.815,16.343
		c-0.159-1.553-1.075-2.767-2.668-2.767c-1.473,0-2.508,1.135-2.727,2.767H97.815z"/>
	<path style="fill:#FFFFFF;" d="M41.84,26.522h-2.354l1.277-4.228l-4.199-10.47h2.574l2.702,7.226l2.202-7.226h2.547L41.84,26.522z"
		/>
	<g>
		<path style="fill:#FFFFFF;" d="M50.657,11.575c-2.063,0-3.78,1.309-3.78,3.273v0.04c0,1.984,1.764,2.613,3.297,3.045
			c1.218,0.373,2.207,0.632,2.207,1.438v0.039c0,0.688-0.479,1.041-1.5,1.041c-1.047,0-2.238-0.422-3.345-1.244l-0.942,1.915
			c1.262,0.922,2.813,1.405,4.211,1.405c2.161,0,3.898-1.175,3.898-3.356v-0.039c0-1.866-1.741-2.554-3.254-3.026
			c-1.218-0.393-2.266-0.707-2.266-1.453v-0.039c0-0.609,0.483-0.986,1.406-0.986c0.859,0,1.889,0.369,2.887,0.973l0.943-1.88
			C53.327,12.014,51.932,11.575,50.657,11.575z"/>
	</g>
</g>
</svg>
